HIERARCHY
ROOT Hips
{
	OFFSET 0.000000 8.830580 0.000000
	CHANNELS 6 Xposition Yposition Zposition Zrotation Yrotation Xrotation 
	JOINT Spine
	{
		OFFSET 0.000000 0.010000 0.000000
		CHANNELS 3 Zrotation Yrotation Xrotation
		JOINT Spine1
		{
			OFFSET 0.000000 2.459130 0.000000
			CHANNELS 3 Zrotation Yrotation Xrotation
			JOINT Neck
			{
				OFFSET 0.000000 2.484630 0.000000
				CHANNELS 3 Zrotation Yrotation Xrotation
				JOINT Head_virtual
				{
					OFFSET 0.000000 0.000000 0.000000
					CHANNELS 3 Zrotation Yrotation Xrotation
					JOINT Head
					{
						OFFSET 0.000000 0.927525 0.000000
						CHANNELS 3 Zrotation Yrotation Xrotation
						End Site
						{
							OFFSET 0.000000 0.000000 0.000000
						}
					}
				}
				JOINT LeftUpArm_virtual
				{
					OFFSET 0.000000 0.000000 0.000000
					CHANNELS 3 Zrotation Yrotation Xrotation
					JOINT LeftUpArm
					{
						OFFSET 1.248820 0.000000 0.000000
						CHANNELS 3 Zrotation Yrotation Xrotation
						JOINT LeftForeArm
						{
							OFFSET 2.597580 0.000000 0.000000
							CHANNELS 3 Zrotation Yrotation Xrotation
							JOINT LeftHand
							{
								OFFSET 2.455420 0.000000 0.000000
								CHANNELS 3 Zrotation Yrotation Xrotation
								End Site
								{
									OFFSET 0.000000 0.000000 0.000000
								}
							}
						}
					}
				}
				JOINT RightUpArm_virtual
				{
					OFFSET -0.000000 -0.000000 -0.000000
					CHANNELS 3 Zrotation Yrotation Xrotation
					JOINT RightUpArm
					{
						OFFSET -1.248820 -0.000000 -0.000000
						CHANNELS 3 Zrotation Yrotation Xrotation
						JOINT RightForeArm
						{
							OFFSET -2.597580 -0.000000 -0.000000
							CHANNELS 3 Zrotation Yrotation Xrotation
							JOINT RightHand
							{
								OFFSET -2.455420 -0.000000 -0.000000
								CHANNELS 3 Zrotation Yrotation Xrotation
								End Site
								{
									OFFSET 0.000000 0.000000 0.000000
								}
							}
						}
					}
				}
			}
		}
	}
	JOINT LeftUpLeg
	{
		OFFSET 1.271939 0.000000 0.000000
		CHANNELS 3 Zrotation Yrotation Xrotation
		JOINT LeftLowLeg
		{
			OFFSET 0.000000 -4.342910 0.000000
			CHANNELS 3 Zrotation Yrotation Xrotation
			JOINT LeftFoot
			{
				OFFSET 0.000000 -4.487670 0.000000
				CHANNELS 3 Zrotation Yrotation Xrotation
				JOINT LeftToeBase
				{
					OFFSET 0.000000 0.000000 1.515070
					CHANNELS 3 Zrotation Yrotation Xrotation
					End Site
					{
						OFFSET 0.000000 0.000000 0.000000
					}
				}
			}
		}
	}
	JOINT RightUpLeg
	{
		OFFSET -1.271939 0.000000 0.000000
		CHANNELS 3 Zrotation Yrotation Xrotation
		JOINT RightLowLeg
		{
			OFFSET 0.000000 -4.342910 0.000000
			CHANNELS 3 Zrotation Yrotation Xrotation
			JOINT RightFoot
			{
				OFFSET 0.000000 -4.487670 0.000000
				CHANNELS 3 Zrotation Yrotation Xrotation
				JOINT RightToeBase
				{
					OFFSET 0.000000 0.000000 1.515070
					CHANNELS 3 Zrotation Yrotation Xrotation
					End Site
					{
						OFFSET 0.000000 0.000000 0.000000
					}
				}
			}
		}
	}
}
MOTION
Frames: 11
Frame Time: 0.041667
-12.723559 8.029876 37.929892 -166.278473 63.454659 -107.186329 11.685056 10.952715 33.422166 -2.042601 -8.987105 5.986264 0.000000 0.000000 0.000000 20.970192 23.178604 16.962611 -8.773884 -20.018276 -101.695442 -16.068100 -23.773899 -2.427580 25.760401 -48.119099 -21.074301 0.000000 -37.845001 0.000000 29.567499 1.485840 49.715500 18.247999 7.941260 4.720410 -44.674000 54.452801 -69.125198 0.000000 25.717600 0.000000 -17.591299 -10.260800 40.598099 -5.693338 5.163450 -100.446272 0.000000 0.000000 55.117298 0.326950 6.362338 -2.637556 0.000000 0.000000 -7.563240 16.446556 -4.558902 -82.145371 0.000000 0.000000 59.465199 23.313813 -1.928389 -13.276257 0.000000 0.000000 -13.087140 
-12.725893 8.024709 37.917508 -166.060667 63.308537 -107.069931 11.576146 10.763987 33.235736 -1.860723 -9.181297 6.247675 0.000000 0.000000 0.000000 20.316566 23.854167 17.033728 -8.489893 -20.347798 -101.674445 -16.162500 -23.958000 -2.969720 25.413601 -48.257599 -19.905399 0.000000 -37.129799 0.000000 29.618401 1.740470 49.691601 18.393200 7.552850 4.804570 -45.576000 55.601501 -69.115501 0.000000 27.743099 0.000000 -14.389900 -6.455690 33.659500 -5.408678 5.099194 -100.451450 0.000000 0.000000 55.310699 0.305815 6.545184 -2.774698 0.000000 0.000000 -7.510530 16.437473 -4.540370 -82.106263 0.000000 0.000000 59.611900 23.469037 -1.927216 -13.203003 0.000000 0.000000 -13.198500 
-12.727861 8.022387 37.907123 -165.676647 63.192957 -106.699332 11.427832 10.660067 33.051999 -1.701078 -9.375748 6.443890 0.000000 0.000000 0.000000 19.653647 24.554977 16.997180 -8.045807 -20.638993 -101.643629 -15.952400 -24.069000 -2.890870 25.548800 -48.057301 -19.857201 0.000000 -36.452499 0.000000 29.376200 1.843740 49.783600 18.356800 7.147130 4.547680 -45.933800 57.075699 -69.070602 0.000000 29.728100 0.000000 -11.485400 -6.759490 31.580601 -5.227263 5.151531 -100.513156 0.000000 0.000000 55.403801 0.341759 6.625241 -2.954447 0.000000 0.000000 -7.476350 16.489372 -4.434387 -82.105590 0.000000 0.000000 59.638500 23.520647 -1.972737 -13.069082 0.000000 0.000000 -13.354530 
-12.729279 8.023205 37.897226 -165.319146 63.087913 -106.208190 11.247978 10.516842 32.803531 -1.573595 -9.626606 6.618933 0.000000 0.000000 0.000000 18.656789 25.592059 16.822945 -7.341086 -21.040930 -101.656316 -15.742400 -24.048100 -3.095930 25.567200 -47.812801 -19.626801 0.000000 -35.980202 0.000000 28.997200 1.810200 49.632999 18.263000 6.761030 4.240270 -46.331299 58.725899 -69.587898 0.000000 31.727800 0.000000 -9.630150 -8.154470 30.344500 -5.161975 5.224128 -100.687141 0.000000 0.000000 55.425900 0.372233 6.599133 -3.097039 0.000000 0.000000 -7.428950 16.576194 -4.312210 -82.173794 0.000000 0.000000 59.529202 23.563706 -1.997453 -12.952606 0.000000 0.000000 -13.483110 
-12.731685 8.024880 37.884867 -164.996340 62.931326 -105.683946 11.211008 10.277037 32.580215 -1.687923 -9.792693 6.766075 0.000000 0.000000 0.000000 17.858920 26.231807 16.580286 -7.182697 -21.338468 -101.487932 -15.307800 -23.815800 -3.440050 25.381201 -47.905701 -19.813299 0.000000 -35.528900 0.000000 28.917000 1.708640 49.888802 19.083700 6.464740 5.592070 -49.969398 58.608398 -71.875504 0.000000 32.017300 0.000000 -9.558270 -6.167800 29.872299 -5.099498 5.255407 -100.937710 0.000000 0.000000 55.454399 0.460767 6.566595 -3.182600 0.000000 0.000000 -7.403030 16.755074 -4.255053 -82.255946 0.000000 0.000000 59.330799 23.623853 -1.913869 -12.866101 0.000000 0.000000 -13.559710 
-12.732817 8.028361 37.871994 -164.926863 62.808508 -105.392846 11.123516 10.100366 32.473363 -1.582668 -9.990885 6.720442 0.000000 0.000000 0.000000 16.887165 27.192143 16.505706 -6.393623 -21.863549 -101.689697 -15.031500 -23.683500 -4.001970 24.812000 -47.986698 -19.717400 0.000000 -35.308800 0.000000 29.117800 1.606220 49.931499 19.809900 6.121770 7.036530 -53.793098 58.179798 -74.631104 0.000000 31.809799 0.000000 -10.494400 -4.228390 30.309799 -5.136379 5.193388 -101.130700 0.000000 0.000000 55.410301 0.552302 6.512459 -3.185376 0.000000 0.000000 -7.407350 16.886190 -4.312459 -82.324820 0.000000 0.000000 59.097000 23.728531 -1.747678 -12.850980 0.000000 0.000000 -13.591890 
-12.733810 8.031026 37.857654 -164.901531 62.752909 -105.209310 11.129456 10.014672 32.512018 -1.708374 -10.067415 6.560324 0.000000 0.000000 0.000000 17.042349 27.213456 16.922686 -6.430361 -21.916487 -101.877073 -14.688500 -23.650499 -3.791040 24.934299 -48.062599 -20.625000 0.000000 -34.952301 0.000000 29.724600 1.381920 50.232700 19.562401 5.627100 6.120600 -53.105801 59.747898 -75.366501 0.000000 33.285801 0.000000 -11.102900 -4.297300 26.222300 -5.207955 5.127809 -101.218273 0.000000 0.000000 55.337002 0.642459 6.474059 -3.239076 0.000000 0.000000 -7.409580 16.961479 -4.410872 -82.327442 0.000000 0.000000 58.862900 23.827542 -1.499713 -12.889291 0.000000 0.000000 -13.527000 
-12.735754 8.032855 37.842431 -164.880685 62.773262 -105.069328 11.185657 9.969415 32.605410 -1.985978 -10.074076 6.474336 0.000000 0.000000 0.000000 17.083216 27.322362 17.169072 -6.294968 -21.971124 -102.042738 -14.689500 -23.588900 -4.232850 24.978901 -48.647999 -20.709900 0.000000 -34.532902 0.000000 30.227699 1.137080 50.256500 19.923300 5.458610 6.629000 -54.698002 59.230301 -76.764397 0.000000 32.574501 0.000000 -12.376200 -5.170300 27.827999 -5.406495 5.089497 -101.247732 0.000000 0.000000 55.243000 0.733689 6.394929 -3.338496 0.000000 0.000000 -7.408460 17.003618 -4.513290 -82.340476 0.000000 0.000000 58.672001 23.755654 -1.416959 -12.910115 0.000000 0.000000 -13.462000 
-12.738040 8.032768 37.828276 -164.848624 62.829456 -104.952136 11.098670 10.157597 32.713992 -1.882223 -10.074128 6.358733 0.000000 0.000000 0.000000 17.367493 27.146792 17.574036 -6.161574 -22.043621 -102.227857 -14.871000 -23.561701 -3.723380 25.988199 -49.005299 -22.213699 0.000000 -34.076500 0.000000 30.713699 0.927120 50.150398 19.691700 5.506140 6.441870 -54.461300 58.885899 -76.707802 0.000000 31.706900 0.000000 -13.927100 -6.943860 31.395901 -5.540506 5.054985 -101.256868 0.000000 0.000000 55.191799 0.756825 6.343715 -3.477317 0.000000 0.000000 -7.390400 16.956423 -4.575661 -82.357582 0.000000 0.000000 58.559502 23.728018 -1.337540 -12.949289 0.000000 0.000000 -13.399100 
-12.740403 8.030176 37.814235 -164.775543 62.940051 -104.790899 11.067124 10.418323 32.846771 -1.907466 -9.973990 6.227676 0.000000 0.000000 0.000000 17.528161 27.121122 17.866610 -5.897244 -22.104354 -102.377644 -14.984300 -23.525499 -3.747870 26.408001 -49.735100 -22.991800 0.000000 -33.601398 0.000000 31.169300 0.188741 49.319801 19.613100 5.518630 6.497180 -54.303200 57.940899 -76.369301 0.000000 30.457399 0.000000 -15.196200 -6.488060 32.103500 -5.701466 5.051814 -101.330582 0.000000 0.000000 55.256901 0.781135 6.282877 -3.614638 0.000000 0.000000 -7.399880 16.827488 -4.563244 -82.380985 0.000000 0.000000 58.476101 23.766570 -1.193876 -13.116797 0.000000 0.000000 -13.232590 
-12.743081 8.026293 37.796649 -164.899492 62.987044 -104.882131 11.082845 10.539316 33.063112 -1.881695 -9.925176 6.015515 0.000000 0.000000 0.000000 17.745102 26.993620 18.356841 -5.748638 -22.268057 -102.584520 -15.022000 -23.425800 -3.803720 26.484600 -50.403400 -23.716299 0.000000 -33.244099 0.000000 31.742001 -0.648427 48.656300 19.006100 5.616400 5.559320 -52.091400 57.904499 -74.991501 0.000000 30.421900 0.000000 -16.406099 -8.474080 32.786701 -5.771160 4.908796 -101.328460 0.000000 0.000000 55.332699 0.818256 6.309999 -3.701053 0.000000 0.000000 -7.400970 16.752166 -4.708072 -82.350387 0.000000 0.000000 58.402199 23.765221 -1.054311 -13.346702 0.000000 0.000000 -13.084380 
